HIERARCHY
ROOT hips
{
  OFFSET 0 9.313263304106702 1.2146308026317778
  CHANNELS 6 Xposition Yposition Zposition Yrotation Xrotation Zrotation
  JOINT spine
  {
    OFFSET -6.402521e-31 0.5173342420023708 0
    CHANNELS 3 Yrotation Xrotation Zrotation
    JOINT chest
    {
      OFFSET 0 1.130544299341115 0
      CHANNELS 3 Yrotation Xrotation Zrotation
      JOINT upperChest
      {
        OFFSET 0 1.0863555061129995 0
        CHANNELS 3 Yrotation Xrotation Zrotation
        JOINT neck
        {
          OFFSET 0 1.3773706506454462 0
          CHANNELS 3 Yrotation Xrotation Zrotation
          JOINT head
          {
            OFFSET 0 0.7374408940073979 0
            CHANNELS 3 Yrotation Xrotation Zrotation
            JOINT leftEye
            {
              OFFSET 0.25066580148932727 0.6408406698778757 0.15963719178883284
              CHANNELS 3 Yrotation Xrotation Zrotation
              End Site
              {
                OFFSET 0.25066580148932727 0.6408406698778757 0.15963719178883284
              }
            }
            JOINT rightEye
            {
              OFFSET -0.25066576739704244 0.6408406384191823 0.15963727561643756
              CHANNELS 3 Yrotation Xrotation Zrotation
              End Site
              {
                OFFSET -0.25066576739704244 0.6408406384191823 0.15963727561643756
              }
            }
          }
        }
        JOINT leftShoulder
        {
          OFFSET 0.3761817444281191 1.0539491987447769 0
          CHANNELS 3 Yrotation Xrotation Zrotation
          JOINT leftUpperArm
          {
            OFFSET 0.8702844380000002 0 0
            CHANNELS 3 Yrotation Xrotation Zrotation
            JOINT leftLowerArm
            {
              OFFSET 2.198527310000323 0 0
              CHANNELS 3 Yrotation Xrotation Zrotation
              JOINT leftHand
              {
                OFFSET 2.146852313968281 0 0
                CHANNELS 3 Yrotation Xrotation Zrotation
                JOINT leftIndexProximal
                {
                  OFFSET 0.6585177834681599 0.07380250427007962 0.18382213159631788
                  CHANNELS 3 Yrotation Xrotation Zrotation
                  JOINT leftIndexIntermediate
                  {
                    OFFSET 0.3323021288626682 -0.009606893929485771 -0.012820872253340998
                    CHANNELS 3 Yrotation Xrotation Zrotation
                    JOINT leftIndexDistal
                    {
                      OFFSET 0.2045908926985518 -0.0071133989147997845 -0.006828784783599051
                      CHANNELS 3 Yrotation Xrotation Zrotation
                      End Site
                      {
                        OFFSET 0.2045908926985518 -0.0071133989147997845 -0.006828784783599051
                      }
                    }
                  }
                }
                JOINT leftLittleProximal
                {
                  OFFSET 0.6110054258835662 0.07380246363125398 -0.29175655876064077
                  CHANNELS 3 Yrotation Xrotation Zrotation
                  JOINT leftLittleIntermediate
                  {
                    OFFSET 0.3144281999999998 -2.5124724523095665e-9 1.8658118799974588e-7
                    CHANNELS 3 Yrotation Xrotation Zrotation
                    JOINT leftLittleDistal
                    {
                      OFFSET 0.18116185580251631 0.002815456192251098 0.0034826415518049436
                      CHANNELS 3 Yrotation Xrotation Zrotation
                      End Site
                      {
                        OFFSET 0.18116185580251631 0.002815456192251098 0.0034826415518049436
                      }
                    }
                  }
                }
                JOINT leftMiddleProximal
                {
                  OFFSET 0.6637478005691111 0.07380246480054087 0.02046981859247815
                  CHANNELS 3 Yrotation Xrotation Zrotation
                  JOINT leftMiddleIntermediate
                  {
                    OFFSET 0.3705733999999994 -2.9611069152224445e-9 9.35054791928458e-8
                    CHANNELS 3 Yrotation Xrotation Zrotation
                    JOINT leftMiddleDistal
                    {
                      OFFSET 0.22861063500000056 -1.82673876025774e-9 -1.6740782024515788e-7
                      CHANNELS 3 Yrotation Xrotation Zrotation
                      End Site
                      {
                        OFFSET 0.22861063500000056 -1.82673876025774e-9 -1.6740782024515788e-7
                      }
                    }
                  }
                }
                JOINT leftRingProximal
                {
                  OFFSET 0.6561845547265777 0.07380246406440083 -0.13588087571513918
                  CHANNELS 3 Yrotation Xrotation Zrotation
                  JOINT leftRingIntermediate
                  {
                    OFFSET 0.3437531000000005 -2.746796123886952e-9 1.4935781944558357e-7
                    CHANNELS 3 Yrotation Xrotation Zrotation
                    JOINT leftRingDistal
                    {
                      OFFSET 0.1983118991198174 -0.002467117924596085 -0.004538141969590015
                      CHANNELS 3 Yrotation Xrotation Zrotation
                      End Site
                      {
                        OFFSET 0.1983118991198174 -0.002467117924596085 -0.004538141969590015
                      }
                    }
                  }
                }
                JOINT leftThumbProximal
                {
                  OFFSET 0.09767004258864787 -0.14930060425447422 -0.07008212897521154
                  CHANNELS 3 Yrotation Xrotation Zrotation
                  JOINT leftThumbIntermediate
                  {
                    OFFSET 0.36682123028154767 -0.015768465060082004 0.28693641268151077
                    CHANNELS 3 Yrotation Xrotation Zrotation
                    JOINT leftThumbDistal
                    {
                      OFFSET 0.21091084272403915 -0.016756648201192714 0.1933767059105508
                      CHANNELS 3 Yrotation Xrotation Zrotation
                      End Site
                      {
                        OFFSET 0.21091084272403915 -0.016756648201192714 0.1933767059105508
                      }
                    }
                  }
                }
              }
            }
          }
        }
        JOINT rightShoulder
        {
          OFFSET -0.37618174442811925 1.0539491987447769 0
          CHANNELS 3 Yrotation Xrotation Zrotation
          JOINT rightUpperArm
          {
            OFFSET -0.870284438 0 0
            CHANNELS 3 Yrotation Xrotation Zrotation
            JOINT rightLowerArm
            {
              OFFSET -2.1985273100003235 0 0
              CHANNELS 3 Yrotation Xrotation Zrotation
              JOINT rightHand
              {
                OFFSET -2.1468523139682802 0 0
                CHANNELS 3 Yrotation Xrotation Zrotation
                JOINT rightIndexProximal
                {
                  OFFSET -0.6585177834681599 0.07380250427007962 0.18382213159631788
                  CHANNELS 3 Yrotation Xrotation Zrotation
                  JOINT rightIndexIntermediate
                  {
                    OFFSET -0.3323021288626682 -0.009606893929485771 -0.012820872253340998
                    CHANNELS 3 Yrotation Xrotation Zrotation
                    JOINT rightIndexDistal
                    {
                      OFFSET -0.2045908926985518 -0.0071133989147997845 -0.006828784783599051
                      CHANNELS 3 Yrotation Xrotation Zrotation
                      End Site
                      {
                        OFFSET -0.2045908926985518 -0.0071133989147997845 -0.006828784783599051
                      }
                    }
                  }
                }
                JOINT rightLittleProximal
                {
                  OFFSET -0.6110054258835662 0.07380246363125398 -0.29175655876064077
                  CHANNELS 3 Yrotation Xrotation Zrotation
                  JOINT rightLittleIntermediate
                  {
                    OFFSET -0.3144281999999998 -2.5124724523095665e-9 1.8658118799974588e-7
                    CHANNELS 3 Yrotation Xrotation Zrotation
                    JOINT rightLittleDistal
                    {
                      OFFSET -0.18116185580251631 0.002815456192251098 0.0034826415518049436
                      CHANNELS 3 Yrotation Xrotation Zrotation
                      End Site
                      {
                        OFFSET -0.18116185580251631 0.002815456192251098 0.0034826415518049436
                      }
                    }
                  }
                }
                JOINT rightMiddleProximal
                {
                  OFFSET -0.6637478005691111 0.07380246480054087 0.02046981859247815
                  CHANNELS 3 Yrotation Xrotation Zrotation
                  JOINT rightMiddleIntermediate
                  {
                    OFFSET -0.3705733999999994 -2.9611069152224445e-9 9.35054791928458e-8
                    CHANNELS 3 Yrotation Xrotation Zrotation
                    JOINT rightMiddleDistal
                    {
                      OFFSET -0.22861063500000056 -1.82673876025774e-9 -1.6740782024515788e-7
                      CHANNELS 3 Yrotation Xrotation Zrotation
                      End Site
                      {
                        OFFSET -0.22861063500000056 -1.82673876025774e-9 -1.6740782024515788e-7
                      }
                    }
                  }
                }
                JOINT rightRingProximal
                {
                  OFFSET -0.6561845547265777 0.07380246406440083 -0.13588087571513918
                  CHANNELS 3 Yrotation Xrotation Zrotation
                  JOINT rightRingIntermediate
                  {
                    OFFSET -0.3437531000000005 -2.746796123886952e-9 1.4935781944558357e-7
                    CHANNELS 3 Yrotation Xrotation Zrotation
                    JOINT rightRingDistal
                    {
                      OFFSET -0.1983118991198174 -0.002467117924596085 -0.004538141969590015
                      CHANNELS 3 Yrotation Xrotation Zrotation
                      End Site
                      {
                        OFFSET -0.1983118991198174 -0.002467117924596085 -0.004538141969590015
                      }
                    }
                  }
                }
                JOINT rightThumbProximal
                {
                  OFFSET -0.09767004258864787 -0.14930060425447422 -0.07008212897521154
                  CHANNELS 3 Yrotation Xrotation Zrotation
                  JOINT rightThumbIntermediate
                  {
                    OFFSET -0.36682123028154767 -0.015768465060082004 0.28693641268151077
                    CHANNELS 3 Yrotation Xrotation Zrotation
                    JOINT rightThumbDistal
                    {
                      OFFSET -0.21091084272403915 -0.016756648201192714 0.1933767059105508
                      CHANNELS 3 Yrotation Xrotation Zrotation
                      End Site
                      {
                        OFFSET -0.21091084272403915 -0.016756648201192714 0.1933767059105508
                      }
                    }
                  }
                }
              }
            }
          }
        }
      }
    }
  }
  JOINT leftUpperLeg
  {
    OFFSET 0.7715603 -0.3993844658041501 0
    CHANNELS 3 Yrotation Xrotation Zrotation
    JOINT leftLowerLeg
    {
      OFFSET 0 -3.529830000249343 0
      CHANNELS 3 Yrotation Xrotation Zrotation
      JOINT leftFoot
      {
        OFFSET 0 -4.154939295409685 0.004208579085223096
        CHANNELS 3 Yrotation Xrotation Zrotation
        JOINT leftToes
        {
          OFFSET 0 -0.6353414391261847 1.10414981190622
          CHANNELS 3 Yrotation Xrotation Zrotation
          End Site
          {
            OFFSET 0 -0.6015820691747853 1.10414981190622
          }
        }
      }
    }
  }
  JOINT rightUpperLeg
  {
    OFFSET -0.7715603 -0.3993844658041501 0
    CHANNELS 3 Yrotation Xrotation Zrotation
    JOINT rightLowerLeg
    {
      OFFSET 0 -3.529830000249343 0
      CHANNELS 3 Yrotation Xrotation Zrotation
      JOINT rightFoot
      {
        OFFSET 0 -4.154939295409685 0.004208579085223096
        CHANNELS 3 Yrotation Xrotation Zrotation
        JOINT rightToes
        {
          OFFSET 0 -0.6353414391261847 1.10414981190622
          CHANNELS 3 Yrotation Xrotation Zrotation
          End Site
          {
            OFFSET 0 -0.6015820691747853 1.10414981190622
          }
        }
      }
    }
  }
}
MOTION
Frames: 4
Frame Time: 0.03333333333333333
0.20429359240965406 10.463954752141778 1.2558623054952716 0.7422863477675558 15.44151489442632 -3.949660731793446 3.3855109754636956 19.879367288247767 4.732202975960526 -2.4175373809177874 -1.6200312857305386 2.7363524885640937 0 0 0 1.3680207782179654 -4.961301396930318 -1.5654443609454551 1.3746061387666146 -14.916979695491058 -1.3761474276964403 0 0 0 0 0 0 -1.7161456474376895 1.3470174300372348 0.5294213412692351 18.50800144106985 -35.48539938138438 -39.31309090687653 -65.74834169790907 -0.00007179661719660154 0.00005049799949082505 -18.849331295829753 38.63373956562564 11.847886576781072 -12.442004558070387 7.175713575178212 11.908745178501666 0.012000000198491416 3.8201759959581517e-8 4.140423332802798e-12 -1.5195040910645636 0.19813927354887442 14.92011546145981 38.40158837573747 2.9559690013452093 -2.125477661977858 -0.0241000006689216 -1.4349259462037925e-7 0.00009999931960393035 -1.5264561657112654 0.14587046663292294 14.920722764172812 7.759318834144071 -0.7878627100208123 8.615974308543805 0.002400000031698369 3.980788600429101e-9 -3.237375502444823e-13 -1.2959979555783951 0.1450965316678842 12.774455866827681 23.893886107125088 -0.4112419104632197 2.333147851586336 0.00001626274095283395 -0.0000037837494721356957 -0.00017453150776027487 -0.8421856629074091 0.06061137013372599 8.246358041101335 -2.2232403280717152 -6.989404621883062 0.8630162487790238 2.0534213313945564 17.037612332843526 31.186785414910403 14.029199485654214 -14.857456129564092 22.4202875284464 1.513103400813897 1.5226086286714897 2.6540608795535894 -3.147426949631126 -19.697417442470336 37.57410584837694 30.24754251756066 0.0000013327890990512043 -0.000017994931488342213 8.699117696714922 0.7342766407686163 -41.052950541945116 20.66928318374051 6.297513778580465 -13.938193601824496 -0.4116129375341802 0.019874683614649707 5.419428176746883 -0.39903909868867493 0.01620036182359332 4.779620600779729 -26.75582217013122 4.859643818155236 9.650233718773787 -0.29245170188952524 0.003183334437004001 4.779168245761323 -0.8032706309335267 0.0439450512271977 9.18491925536943 3.5553661279458075 0.20781873955115054 -1.3532715187703799 -0.5374876501269373 0.037901252742042674 7.812547241812426 -0.8495558698293324 0.07075055917814405 10.025284250657172 -8.773312197913237 0.6093928561865986 4.820597552767736 -0.8993669924187644 0.08397735265464386 10.79256664838055 -0.8033303987891847 0.07091894614823181 9.752533539525286 -0.7019384150508889 -27.830110216764083 10.850103333949443 -4.53009574621795 14.717386203948564 -13.60792650860711 -5.319949700944623 -15.180784721381706 -11.7437655982597 8.897809998149498 -59.20859328567327 6.4436840451170925 13.16413994498081 60.47907949422809 15.182331953605837 6.385311490203853 -14.231562345334643 -0.45592517025819684 0.000007621613492483533 -4.648067922247257 -0.0000030578055156980513 -43.04549920603024 -43.97604149761837 21.935114915114337 15.749507288015028 60.26361566878944 5.959286536590107 -16.30666189621008 -20.22893944023039 4.533316367084488 0.000004317068202140988 -4.891979689543367 -0.0000018342798164982237
0.246220664544539 9.734828255393287 1.3564465219111537 0.588481833538076 15.920594830476954 -4.548811663415278 2.6954709476302243 17.694338502134645 4.866871633918738 -2.8558780371802586 -1.0167243487464042 3.026177597651504 0 0 0 1.5756662967316863 -5.249130041750194 -1.6743178236005853 2.02646451775957 -14.815335397323793 -1.3486105792949348 0 0 0 0 0 0 -0.13405083949659835 1.31577507360088 1.9580455099636846 26.37117273389127 -29.718440414084778 -42.80439864411954 -77.02726306902579 -0.000055365200386113115 0.00005257858096347456 -19.43851745368079 37.5440236010923 6.248796948439073 -12.219040663863911 7.130511754971522 9.798724681956314 0.012000949854878547 0.000002822320818136922 -0.00007064213508182609 -1.5195100654142641 0.1981426886638805 14.920127890675644 38.631632871883134 4.266141526609672 -3.8948764190893885 -0.0241000006689216 -1.4349259462037925e-7 0.00009999931960393035 -1.526443470293897 0.14587819064141255 14.920701205762823 7.759334908836159 -0.7878670860244622 8.615975996980456 0.0024009021636159696 0.000006978107252028029 -0.00009318733643782241 -1.0587934625586535 0.09648219057580762 10.411920542591213 24.082973743930694 0.14506371463815063 0.9309757624715579 0.000003083734525849772 -0.0000012667954900767059 -0.00019529285293790275 -0.8420145562020961 0.06058879181021779 8.244917590790918 -4.0665118669497 -5.563466648335301 -7.651088721100526 2.0534568990105253 17.037598045428496 31.186794581898358 14.925041910106684 -14.7334402241416 18.83382338256754 0.970084699852448 1.3790315814089915 3.341615879690444 -0.7479215204101998 -9.429714764212546 24.228359977506557 37.380066246523974 -0.000004452294941736842 0.00001495732162092765 8.985953104182496 -8.662107591651298 -41.789711203672084 20.79086691594571 4.1797693726998615 -8.861780523560698 -0.7795130749552891 0.06875984437424712 9.97610735399688 -1.7097932869301047 0.32026608965973624 21.350430757210795 -27.096018056512936 9.570800398852292 19.449455582927445 -0.6186084570452267 0.03094902604233003 8.79557632183186 -2.365504035616557 0.5544743400529065 29.452709725905773 2.6365020525315104 -0.8786693887908787 10.090208110173899 -0.9032565848256695 0.09976495506014921 12.366747075246213 -2.4419565032044592 0.6653270840624727 30.99725229623705 -9.559630430804333 1.8721246784634777 15.016139391142163 -1.2605661667377221 0.1684515439903991 15.346229274905454 -2.379529366504315 0.6563597832378526 30.495529572179628 -1.3040532674717766 -23.652729102177048 13.868750997987592 -15.843056148444376 13.404346653689947 -17.660847205092992 -18.837496179248596 -12.64475113536799 -11.5433692114016 10.43629201751665 -53.89072823626379 5.34947991846629 9.16695491157188 51.497925853237376 10.971715776034358 3.7478471449215967 -10.586496088294608 -2.4517674627182937 0.0000016672617639989237 -5.693470039028099 -1.0043987724273902e-7 -42.52061872960935 -38.62914925524952 20.514576072402065 15.819128323340511 51.68208069189949 3.7624132750398123 -13.92593237495874 -15.900291223522427 4.408054577005958 -0.000019819463278876312 -6.819100203938633 0.0000035373788507886795
0.29303778301585803 8.827039545232598 1.3811660175760971 1.5001344283641012 17.329009266392763 -4.678972030370628 2.43742434792783 18.1063646757423 5.636810592260412 -3.286081128295224 -2.2193435975199387 3.265536581708059 0 0 0 1.6163505195620207 -5.987785797431724 -1.9198125864493518 1.907956658996005 -17.524089275054823 -1.7018723448203192 0 0 0 0 0 0 1.7685695672092099 1.0357382697209268 3.880774500771826 32.99384860670813 -27.208566109436365 -41.94752217593252 -86.76030273155871 -0.00006956681488673587 0.00007160633025861862 -14.641919175968397 32.50405910691698 7.1437841366746495 -11.99545304809904 7.101706813420178 7.554048007430493 0.012006781195327554 -0.0000010313253379006125 -0.000040833734783245344 -1.5194929958436034 0.19814398267230093 14.92011546145981 38.83023785800125 5.667727851925074 -5.76869750422411 -0.0241000006689216 -1.4349259462037925e-7 0.00009999931960393035 -1.5264462440825786 0.14587636302627746 14.920696255824335 7.75933660090894 -0.7878619095323403 8.615972620107142 0.0024000267121247676 -0.000004331649225559819 -0.0000015561216438963333 -0.8050321124141677 0.055625199405786835 7.90386069583274 24.269334492051904 0.7412412896831742 -0.5551107164264739 0.000005929602644181984 0.0000019182335448238194 -0.0001008170590414158 -0.8418739686317274 0.06056458597979655 8.243386817037132 -6.271790217383213 -3.6454236428158544 -16.42151024956343 2.05345097048964 17.03759268764814 31.186791204454835 15.858001797221958 -14.529073723868885 15.032930476041107 0.5075481890311507 1.3239608792911823 0.9779614400018648 -6.866249788638449 -2.251548542936858 10.950494759583878 43.12445759291868 0.000005966545117584901 0.000014562645420060747 14.875584761741631 -18.885365098629443 -41.67781782011218 20.791247682275323 4.0357515230900995 -8.5194571806379 -0.8042710315766383 0.07313584454375993 10.284417140477736 -1.7945067707143298 0.3543267526800024 22.470817744323586 -27.08764533480437 9.894138174497906 20.114430900039345 -0.6405855579186125 0.03365077316513443 9.067240350676677 -2.463314216657353 0.6084927144824902 30.8228838566314 2.565020509668231 -0.9455967051208923 10.8646938251858 -0.9278234220436093 0.1050079940650159 12.67477589691978 -2.5403228307895267 0.7260181647697904 32.414967490601846 -9.605199593639934 1.9634177586088417 15.705050142265037 -1.2847339399527913 0.1751908899355301 15.654163065792446 -2.477091275550996 0.7159974838373009 31.897811722416122 -1.3320084575864404 -23.369583366920782 14.06764178002703 -16.6018163712142 13.287938664000077 -17.923346095040433 -19.746389025441392 -12.472535408392863 -11.552078850959662 12.158076299949453 -53.99667174240269 2.5976072707685662 7.028377981726675 49.85796044746406 9.13753275146323 1.5296022847046689 -7.80000440078867 -4.264496653149171 0.00000516619250902597 -7.39732059918393 -0.00000257785012034496 -43.107785806682145 -38.48490078137568 20.750815532500386 15.822214417520179 50.849645212370035 3.0265131382942 -11.91939582237585 -13.09083654592849 3.7699966336814006 0.000012107118885554792 -9.21900245533219 5.472046891472332e-7
0.3332077373157848 7.8267548301003185 1.2952195335305483 3.1319128297837975 18.350850308879515 -4.527422445794548 2.872359988667133 22.689492608263297 7.158805460324302 -3.7000717056889076 -4.954532111236534 3.39049170910295 0 0 0 1.4876741142762724 -7.072565570140711 -2.2658072319009586 1.2485922122977888 -23.313861445219768 -2.4525893956388143 0 0 0 0 0 0 2.4524547281280324 0.7071021306700709 5.238792517413723 40.53884784324852 -32.276953996661774 -40.366674935433814 -89.77462546483254 -0.00007460602180762378 0.00006831532310618165 -9.779562593175502 27.553663601828635 10.46300875660765 -11.820456970148207 7.040708164326945 5.5298933347560455 0.04192551123737437 0.00010482660733699248 -0.2919860637173212 -1.4908330342954277 0.19058091870783694 14.630709685216504 38.845335210772326 6.921047496068722 -7.483307284937331 0.005308989216414989 0.0011278205001333912 -0.28691425482166205 -1.4940898533532312 0.13852859096831024 14.597205621400228 7.73888796511469 -0.7609570442102177 8.39792024376576 0.03181685118199582 0.00006352259746871531 -0.2870638672022599 -0.5636355218330139 0.02724926416956764 5.532093482105652 24.121003105304876 1.2957873107880988 -1.992089201685564 0.031482785604675115 0.00007793732969210411 -0.3073913285224527 -0.8120901035651341 0.05634384037021267 7.949817156292583 -7.862147033923314 -1.5430725816752644 -23.330036358051064 2.174236466036196 16.993956869158552 31.221224271377793 16.524051791966794 -14.330491467674172 12.157104807675887 0.3101990171818386 1.48204438482753 -4.61951839064357 -17.65618997085625 -2.361141917317964 2.867994188056384 41.60039830309793 -0.000013362131264657677 -0.000006597838709423708 25.85785144710622 -29.872207196776554 -41.40252195257582 20.763636881329752 5.141880601718183 -11.155435487579181 -0.613460784846578 0.043009228330083096 7.913282060706911 -1.1276623718129348 0.13564797712060836 13.851320368984581 -27.0498792922184 7.416016287723242 15.011010186237405 -0.4712217339936933 0.01556033838922208 6.977616480983007 -1.6812338058060874 0.25489157442932436 20.281156429976 3.0865049441379386 -0.4076316631005389 4.9092617392449815 -0.7383349039723851 0.06816681144216734 10.305424390690549 -1.7486642118407552 0.3239805973343206 21.507243485791175 -9.228524575293253 1.2788326364442832 10.404108107706215 -1.0979206399415884 0.12665610289328608 13.285390708363195 -1.6928725306984134 0.3206673695502552 21.1091312841178 -1.078926167365933 -25.545843650364862 12.5218496292624 -10.742905151722487 14.094718559242 -15.86285225412683 -12.73886505755309 -13.797961816859814 -11.5573731151092 14.64756855747566 -61.2444825743911 -1.2010337420292223 8.07695972682773 60.71723736665622 10.84522040317689 0.6041538700761634 -12.377438869358283 -3.6573526523109794 0.000014247735099906486 -10.068609496357356 -0.000005809699574115506 -45.72271802301979 -44.12498955460725 23.129846630186037 21.03102118007444 61.582534608574754 8.998820771423878 -14.047353321464046 -20.642282002142 2.9886049052572683 0.000011277094988237081 -11.788668772587462 -0.0000015749308734946035
